<svg xmlns="http://www.w3.org/2000/svg" viewBox="0 0 1425.63 338.38"><defs><style>.cls-1{fill:#04213e;}.cls-2{fill:#4daaa7;}</style></defs><g id="Layer_2" data-name="Layer 2"><g id="Layer_1-2" data-name="Layer 1"><path class="cls-1" d="M91.43,156.54H43.24v95.71H0V3.42H87.5q43.07,0,66.48,19.33t23.41,55.93q0,25-12,41.82t-33.58,25.91L187.65,250v2.22H141.33ZM43.24,121.68H87.67q21.87,0,34.18-11t12.31-30.17q0-20-11.37-30.93T88.87,38.28H43.24Z"/><path class="cls-1" d="M264,252.25H221V3.42H264Z"/><path class="cls-1" d="M507.91,220q-13.5,17.6-37.43,26.66t-54.34,9q-31.27,0-55.37-14.18T323.6,200.89q-13.08-26.4-13.59-61.61V119.8q0-56.4,27-88.1T412.38,0q41.52,0,66,20.59t29.4,59.22H465.36q-7.19-44.94-52.13-44.95-29.06,0-44.18,20.92t-15.63,61.38v19.12q0,40.31,17,62.58t47.26,22.28q33.15,0,47.16-15V157.4H413.57V124.58h94.34Z"/><path class="cls-1" d="M753,252.25H709.91V141.85H598.66v110.4H555.42V3.42h43.24V107H709.91V3.42H753Z"/><path class="cls-1" d="M978.91,38.28H901.32v214h-42.9v-214h-76.9V3.42H978.91Z"/><path class="cls-1" d="M1193.55,164.32v5.38q0,39.66-25.37,62.81t-67.59,23.15q-42.73,0-67.85-22.81t-25.12-63.32V3.42h43.06V169.87q0,25,12.65,38.11,10.82,11.27,30.37,12.88,3.32.28,6.89.28,3.79,0,7.29-.31a.67.67,0,0,0,.2,0A104.48,104.48,0,0,0,1193.55,164.32Z"/><path class="cls-2" d="M1193.55,3.42V123.58a104.82,104.82,0,0,1-43.06,44.1V3.42Z"/><path class="cls-1" d="M1282.93,160v92.29H1239.7V3.42h95.19q41.7,0,66.22,21.73t24.52,57.48q0,36.62-24,57T1334.38,160Zm0-34.86h52q23.07,0,35.2-10.85t12.14-31.36q0-20.18-12.31-32.22t-33.84-12.39h-53.15Z"/><path class="cls-2" d="M276,324.88a6,6,0,0,0-2.31-5.06c-1.53-1.19-4.31-2.38-8.32-3.59a40.35,40.35,0,0,1-9.57-4q-6.8-4.27-6.8-11.15a12.12,12.12,0,0,1,4.9-9.91q4.91-3.9,12.74-3.89a21.44,21.44,0,0,1,9.26,1.91,15.22,15.22,0,0,1,6.39,5.45,14,14,0,0,1,2.32,7.85H276a7.81,7.81,0,0,0-2.44-6.11c-1.63-1.46-4-2.2-7-2.2A10.51,10.51,0,0,0,260,296a6,6,0,0,0-2.34,5.06,5.45,5.45,0,0,0,2.53,4.56,28.91,28.91,0,0,0,8.34,3.56,38.43,38.43,0,0,1,9.33,3.93,15,15,0,0,1,5.16,5.06,13.2,13.2,0,0,1,1.64,6.68,11.82,11.82,0,0,1-4.77,9.89q-4.77,3.68-12.94,3.68a24.37,24.37,0,0,1-9.93-2,16.66,16.66,0,0,1-7-5.52,13.79,13.79,0,0,1-2.51-8.2h8.65a8,8,0,0,0,2.8,6.56q2.8,2.32,8,2.32,4.51,0,6.79-1.83A5.89,5.89,0,0,0,276,324.88Z"/><path class="cls-2" d="M402,314.11A30.49,30.49,0,0,1,399.42,327a19,19,0,0,1-7.23,8.47,21.18,21.18,0,0,1-21.6,0,19.46,19.46,0,0,1-7.31-8.42,29.72,29.72,0,0,1-2.62-12.62v-2.8a30.27,30.27,0,0,1,2.58-12.85,19.44,19.44,0,0,1,7.28-8.53,21.28,21.28,0,0,1,21.57,0,19.13,19.13,0,0,1,7.27,8.41A30.26,30.26,0,0,1,402,311.34Zm-8.64-2.6q0-8.26-3.13-12.68a11,11,0,0,0-17.64,0c-2.11,2.92-3.18,7.07-3.23,12.42v2.87q0,8.2,3.2,12.68a10.27,10.27,0,0,0,8.87,4.48,10.15,10.15,0,0,0,8.83-4.38q3.09-4.36,3.1-12.78Z"/><path class="cls-2" d="M489.21,330.79h22.6v6.91H480.57V287.93h8.64Z"/><path class="cls-2" d="M624,287.93v33.26q0,7.92-5.08,12.56t-13.52,4.63q-8.53,0-13.56-4.56t-5-12.67V287.93h8.61v33.29c0,3.33.85,5.87,2.53,7.62s4.17,2.63,7.45,2.63q10,0,10-10.52v-33Z"/><path class="cls-2" d="M739.2,294.9H723.69v42.8h-8.58V294.9H699.73v-7H739.2Z"/><path class="cls-2" d="M824.86,337.7h-8.61V287.93h8.61Z"/><path class="cls-2" d="M945.21,314.11A30.64,30.64,0,0,1,942.68,327a19.15,19.15,0,0,1-7.23,8.47,21.18,21.18,0,0,1-21.6,0,19.41,19.41,0,0,1-7.32-8.42,29.57,29.57,0,0,1-2.61-12.62v-2.8a30.27,30.27,0,0,1,2.58-12.85,19.37,19.37,0,0,1,7.28-8.53,21.26,21.26,0,0,1,21.56,0,19.13,19.13,0,0,1,7.27,8.41,30.26,30.26,0,0,1,2.6,12.76Zm-8.65-2.6q0-8.26-3.13-12.68a11,11,0,0,0-17.64,0c-2.1,2.92-3.18,7.07-3.23,12.42v2.87q0,8.2,3.2,12.68a10.28,10.28,0,0,0,8.87,4.48,10.15,10.15,0,0,0,8.83-4.38q3.1-4.36,3.1-12.78Z"/><path class="cls-2" d="M1063.3,337.7h-8.65l-22.18-35.31V337.7h-8.65V287.93h8.65l22.25,35.44V287.93h8.58Z"/><path class="cls-2" d="M1169.53,324.88a6,6,0,0,0-2.31-5.06c-1.54-1.19-4.31-2.38-8.32-3.59a40.35,40.35,0,0,1-9.57-4q-6.81-4.27-6.81-11.15a12.13,12.13,0,0,1,4.91-9.91q4.9-3.9,12.73-3.89a21.44,21.44,0,0,1,9.26,1.91,15.19,15.19,0,0,1,6.4,5.45,14.06,14.06,0,0,1,2.32,7.85h-8.61a7.82,7.82,0,0,0-2.45-6.11c-1.63-1.46-4-2.2-7-2.2a10.53,10.53,0,0,0-6.58,1.81,6,6,0,0,0-2.34,5.06,5.45,5.45,0,0,0,2.53,4.56,29.17,29.17,0,0,0,8.34,3.56,38.43,38.43,0,0,1,9.33,3.93,14.81,14.81,0,0,1,5.16,5.06,13.1,13.1,0,0,1,1.64,6.68,11.83,11.83,0,0,1-4.76,9.89q-4.77,3.68-12.94,3.68a24.37,24.37,0,0,1-9.93-2,16.6,16.6,0,0,1-7-5.52,13.72,13.72,0,0,1-2.51-8.2h8.64a8.05,8.05,0,0,0,2.81,6.56q2.79,2.32,8,2.32,4.52,0,6.78-1.83A5.88,5.88,0,0,0,1169.53,324.88Z"/></g></g></svg>